<svg width="30" height="30" fill="none" xmlns="http://www.w3.org/2000/svg">
  <g clip-path="url(#a)">
    <path d="m29.244 17.82-12.167-1.738a.878.878 0 0 0-.994.995l1.739 12.168a.88.88 0 0 0 .994.746 13.167 13.167 0 0 0 6.058-2.537.88.88 0 0 0 .182-1.217c-.568-.783.283-1.838 1.184-1.182a.88.88 0 0 0 1.217-.183 13.163 13.163 0 0 0 2.534-6.058.879.879 0 0 0-.747-.994Zm-15.476-3.124a.937.937 0 0 1 1.06-1.06l10.442 1.491c.344.044.948-.31 1.017-.944.04-.373.08-.748.08-1.133 0-6.522-4.872-12.128-11.33-13.04a.85.85 0 0 0-.672.185.877.877 0 0 0-.326.616.864.864 0 0 1-.855.813.865.865 0 0 1-.855-.813.877.877 0 0 0-.326-.616.859.859 0 0 0-.673-.184C4.872.922 0 6.528 0 13.05c0 7.27 5.914 13.183 13.184 13.183.39 0 .767-.04 1.303-.1a.879.879 0 0 0 .774-.998l-1.493-10.439Z" fill="url(#b)"/>
    <path d="M22.227 19.589a.879.879 0 1 0 0 1.758.879.879 0 0 0 0-1.758Zm-12.559-.387a.879.879 0 1 0 0 1.758.879.879 0 0 0 0-1.758ZM14.941 5.14a.879.879 0 1 0 0 1.758.879.879 0 0 0 0-1.758Zm3.516 3.516a.879.879 0 1 0 0 1.757.879.879 0 0 0 0-1.757ZM6.152 13.929a.879.879 0 1 0 0 1.758.879.879 0 0 0 0-1.758ZM7.91 6.898a2.64 2.64 0 0 0-2.637 2.636 2.64 2.64 0 0 0 2.637 2.637 2.64 2.64 0 0 0 2.637-2.637A2.64 2.64 0 0 0 7.91 6.898Z" fill="url(#c)"/>
  </g>
  <defs>
    <linearGradient id="b" x1="15" y1="30" x2="15" y2="0" gradientUnits="userSpaceOnUse">
      <stop stop-color="#FD5900"/>
      <stop offset="1" stop-color="#FFDE00"/>
    </linearGradient>
    <linearGradient id="c" x1="14.19" y1="21.347" x2="14.19" y2="5.14" gradientUnits="userSpaceOnUse">
      <stop stop-color="#FFE59A"/>
      <stop offset="1" stop-color="#FFFFD5"/>
    </linearGradient>
    <clipPath id="a">
      <path fill="white" d="M0 0h30v30H0z"/>
    </clipPath>
  </defs>
</svg>
