<svg width="30" height="30" fill="none" xmlns="http://www.w3.org/2000/svg">
  <path d="M18.516 16.758a1.74 1.74 0 0 0-1.758 1.758 1.74 1.74 0 0 0 1.758 1.757 1.74 1.74 0 0 0 1.757-1.757 1.74 1.74 0 0 0-1.757-1.758Zm0 5.273a1.74 1.74 0 0 0-1.758 1.758 1.74 1.74 0 0 0 1.758 1.758 1.74 1.74 0 0 0 1.757-1.758 1.74 1.74 0 0 0-1.757-1.758ZM15 23.79a1.74 1.74 0 0 0-1.758 1.758c0 .985.773 1.816 1.758 1.816s1.758-.83 1.758-1.816A1.74 1.74 0 0 0 15 23.789Zm-3.516-3.516a1.74 1.74 0 0 0-1.757 1.758 1.74 1.74 0 0 0 1.757 1.758 1.74 1.74 0 0 0 1.758-1.758 1.74 1.74 0 0 0-1.758-1.758ZM15 22.031a1.74 1.74 0 0 0 1.758-1.758A1.74 1.74 0 0 0 15 18.516a1.74 1.74 0 0 0-1.758 1.757A1.74 1.74 0 0 0 15 22.031Zm6.152-14.853V4.395a.87.87 0 0 0-.879-.88H9.727a.87.87 0 0 0-.88.88v2.783a4.395 4.395 0 0 0-3.515 4.306v3.868l6.223.905c-.046.158-.07.326-.07.5a1.74 1.74 0 0 0 1.757 1.759A1.74 1.74 0 0 0 15 16.758l9.668-1.406v-3.868a4.395 4.395 0 0 0-3.516-4.306Z" fill="url(#a)"/>
  <path d="M9.727 5.273h10.546a2.64 2.64 0 0 0 2.637-2.636A2.64 2.64 0 0 0 20.273 0H9.727A2.64 2.64 0 0 0 7.09 2.637a2.64 2.64 0 0 0 2.637 2.636ZM15 13.243c-2.505 0-5.782.554-9.668 2.109v12.011A2.633 2.633 0 0 0 7.969 30H22.03a2.633 2.633 0 0 0 2.637-2.637V15.352c-3.883-1.554-7.17-2.11-9.668-2.11Zm-3.516 9.667a.87.87 0 0 1-.879-.879.87.87 0 0 1 .88-.879.87.87 0 0 1 .878.88.87.87 0 0 1-.879.878Zm1.758-5.273a.87.87 0 0 1-.879-.88.87.87 0 0 1 .88-.878.87.87 0 0 1 .878.879.87.87 0 0 1-.879.879ZM15 26.426a.87.87 0 0 1-.879-.88.87.87 0 0 1 .879-.878.87.87 0 0 1 .879.879.87.87 0 0 1-.879.879Zm0-5.274a.87.87 0 0 1-.879-.879.87.87 0 0 1 .879-.878.87.87 0 0 1 .879.878.87.87 0 0 1-.879.88Zm3.516 3.516a.87.87 0 0 1-.88-.879.87.87 0 0 1 .88-.879.87.87 0 0 1 .879.88.87.87 0 0 1-.88.878Zm0-5.273a.87.87 0 0 1-.88-.88.87.87 0 0 1 .88-.878.87.87 0 0 1 .879.879.87.87 0 0 1-.88.879Z" fill="url(#b)"/>
  <defs>
    <linearGradient id="a" x1="15" y1="27.363" x2="15" y2="3.516" gradientUnits="userSpaceOnUse">
      <stop stop-color="#ADDCFF"/>
      <stop offset=".503" stop-color="#EAF6FF"/>
      <stop offset="1" stop-color="#EAF6FF"/>
    </linearGradient>
    <linearGradient id="b" x1="15" y1="30" x2="15" y2="0" gradientUnits="userSpaceOnUse">
      <stop stop-color="#5558FF"/>
      <stop offset="1" stop-color="#00C0FF"/>
    </linearGradient>
  </defs>
</svg>
