<svg width="30" height="30" fill="none" xmlns="http://www.w3.org/2000/svg">
  <g clip-path="url(#a)">
    <path d="M15 0C6.724 0 0 6.724 0 15s6.724 15 15 15 15-6.724 15-15S23.276 0 15 0Zm0 20.294c-2.912 0-5.294-2.382-5.294-5.294 0-2.912 2.382-5.294 5.294-5.294 2.912 0 5.294 2.382 5.294 5.294 0 2.912-2.382 5.294-5.294 5.294Z" fill="url(#b)"/>
    <path d="M26.47 15c0-.706-.211-1.747-1.129-2.788.265-1.36-.053-2.347-.406-2.947-.353-.6-1.04-1.394-2.364-1.836-.442-1.323-1.236-2.011-1.836-2.364-.83-.477-1.835-.618-2.947-.406-1.041-.918-2.082-1.13-2.788-1.13s-1.747.212-2.789 1.13c-1.111-.212-2.117-.07-2.946.406-.6.353-1.395 1.04-1.836 2.364-1.323.46-2.011 1.236-2.364 1.836-.353.6-.671 1.588-.406 2.947-.918 1.04-1.13 2.082-1.13 2.788s.212 1.747 1.13 2.788c-.265 1.359.053 2.347.406 2.947.353.6 1.04 1.394 2.364 1.835.441 1.324 1.235 2.012 1.836 2.365.829.477 1.835.636 2.946.406 1.042.918 2.083 1.13 2.789 1.13s1.747-.212 2.788-1.13c1.112.23 2.118.07 2.947-.406.6-.353 1.394-1.04 1.835-2.364 1.324-.46 2.012-1.236 2.365-1.836.353-.6.67-1.588.406-2.947.918-1.04 1.13-2.082 1.13-2.788ZM11.419 8.012l1.976-.124c.53-.017.9.335.935.83a.91.91 0 0 1-.83.935l-2.029.123a.9.9 0 0 1-.882-.829.865.865 0 0 1 .83-.935Zm.05 1.765c-.01 0-.01 0 0 0Zm-2.733 5.611c-.195.391-.665.628-1.182.406-.441-.23-.618-.759-.406-1.182l.882-1.765c.23-.441.76-.618 1.183-.406.44.23.617.759.405 1.182l-.882 1.765Zm3.23 6.46c-.36.238-.945.188-1.236-.248l-1.076-1.641c-.282-.406-.159-.953.247-1.235a.869.869 0 0 1 1.218.264l1.093 1.642a.88.88 0 0 1-.246 1.217ZM10.588 15A4.413 4.413 0 0 1 15 10.588 4.413 4.413 0 0 1 19.412 15 4.413 4.413 0 0 1 15 19.412 4.413 4.413 0 0 1 10.588 15Zm5.963 7.112c-.011 0-.01 0 0 0Zm2.031-.124-2.03.124a.887.887 0 0 1-.881-.83.91.91 0 0 1 .829-.935l1.976-.123c.53-.018.9.352.936.829a.865.865 0 0 1-.83.935ZM20.1 11.277c-.433.27-.978.134-1.218-.265L17.788 9.37a.88.88 0 0 1 .247-1.218.903.903 0 0 1 1.235.247l1.077 1.641c.282.406.159.953-.247 1.236Zm2.753 4.111-.883 1.765c-.195.39-.665.627-1.182.406-.441-.23-.618-.76-.406-1.183l.883-1.764c.229-.441.758-.618 1.182-.406.441.23.618.759.406 1.182Z" fill="url(#c)"/>
  </g>
  <defs>
    <linearGradient id="b" x1="15" y1="30" x2="15" y2="0" gradientUnits="userSpaceOnUse">
      <stop stop-color="#A93AFF"/>
      <stop offset="1" stop-color="#FF81FF"/>
    </linearGradient>
    <linearGradient id="c" x1="3.529" y1="15" x2="26.471" y2="15" gradientUnits="userSpaceOnUse">
      <stop stop-color="#FFBEF9"/>
      <stop offset="1" stop-color="#FFF1FF"/>
    </linearGradient>
    <clipPath id="a">
      <path fill="white" d="M0 0h30v30H0z"/>
    </clipPath>
  </defs>
</svg>
