<svg width="30" height="30" fill="none" xmlns="http://www.w3.org/2000/svg">
  <g clip-path="url(#a)">
    <path d="M8.818 22.545c7.58 0 13.725-6.146 13.725-13.727 0-3.359-1.21-6.432-3.213-8.818C25.518 1.987 30 7.783 30 14.63c0 8.489-6.88 15.37-15.369 15.37C7.782 30 1.986 25.518 0 19.33a13.664 13.664 0 0 0 8.818 3.215Z" fill="url(#b)"/>
    <path d="m7.692 6 1.583 3.21 3.541.513-2.562 2.498.604 3.526-3.166-1.665-3.167 1.665.605-3.526-2.562-2.498 3.54-.514L7.692 6Z" fill="url(#c)"/>
    <path d="m16.622 4.973.82 1.664 1.836.266-1.329 1.295.314 1.827-1.641-.863-1.642.863.314-1.827-1.328-1.295 1.835-.266.82-1.664Z" fill="url(#d)"/>
  </g>
  <defs>
    <linearGradient id="b" x1="14.999" y1="30" x2="14.999" y2="0" gradientUnits="userSpaceOnUse">
      <stop stop-color="#FD9800"/>
      <stop offset="1" stop-color="#FFDE00"/>
    </linearGradient>
    <linearGradient id="c" x1="7.692" y1="15.747" x2="7.692" y2="6" gradientUnits="userSpaceOnUse">
      <stop stop-color="#FD9800"/>
      <stop offset="1" stop-color="#FFDE00"/>
    </linearGradient>
    <linearGradient id="d" x1="16.622" y1="10.025" x2="16.622" y2="4.973" gradientUnits="userSpaceOnUse">
      <stop stop-color="#FD9800"/>
      <stop offset="1" stop-color="#FFDE00"/>
    </linearGradient>
    <clipPath id="a">
      <path fill="white" d="M0 0h30v30H0z"/>
    </clipPath>
  </defs>
</svg>
